<svg width="125" height="18" viewBox="0 0 125 18" fill="none" xmlns="http://www.w3.org/2000/svg">
<path fill-rule="evenodd" clip-rule="evenodd" d="M7.62269 3.12C5.16131 3.12 3.16597 5.08637 3.16597 7.512V17.8512H0V7.512C0 3.36324 3.41279 0 7.62269 0H10.8666V3.12H7.62269ZM14.0374 3.4224L14.0374 6.07362C14.0374 10.2224 10.6246 13.5856 6.41473 13.5856H4.52974V10.4656H6.41473C8.8761 10.4656 10.8714 8.49924 10.8714 6.07361L10.8715 3.42239L14.0374 3.4224ZM14.0374 13.2928V18H10.8715V13.2928H14.0374Z" fill="#332D34"/>
<path d="M81.07 12.194H77.0357L76.2861 14.0207H73.533L77.7445 4.6186H80.4022L84.6273 14.0207H81.8196L81.07 12.194ZM80.2795 10.233L79.0529 7.22431L77.8262 10.233H80.2795Z" fill="#332D34"/>
<path d="M88.9785 14.1415C88.1607 14.1415 87.4293 13.9804 86.7842 13.658C86.139 13.3356 85.6348 12.8879 85.2713 12.3149C84.9169 11.7418 84.7398 11.0926 84.7398 10.3673C84.7398 9.64198 84.9169 8.99727 85.2713 8.43315C85.6348 7.86007 86.139 7.41683 86.7842 7.10343C87.4293 6.78107 88.1607 6.61989 88.9785 6.61989C89.8144 6.61989 90.5368 6.79898 91.1456 7.15715C91.7544 7.50637 92.186 7.99438 92.4404 8.62119L90.4368 9.62855C90.1007 8.97488 89.61 8.64805 88.9649 8.64805C88.5015 8.64805 88.1153 8.80027 87.8064 9.10472C87.5065 9.40917 87.3566 9.83002 87.3566 10.3673C87.3566 10.9135 87.5065 11.3433 87.8064 11.6567C88.1153 11.9612 88.5015 12.1134 88.9649 12.1134C89.61 12.1134 90.1007 11.7865 90.4368 11.1329L92.4404 12.1402C92.186 12.767 91.7544 13.2595 91.1456 13.6177C90.5368 13.9669 89.8144 14.1415 88.9785 14.1415Z" fill="#332D34"/>
<path d="M97.1109 14.1415C96.2931 14.1415 95.5617 13.9804 94.9166 13.658C94.2714 13.3356 93.7671 12.8879 93.4037 12.3149C93.0493 11.7418 92.8722 11.0926 92.8722 10.3673C92.8722 9.64198 93.0493 8.99727 93.4037 8.43315C93.7671 7.86007 94.2714 7.41683 94.9166 7.10343C95.5617 6.78107 96.2931 6.61989 97.1109 6.61989C97.9468 6.61989 98.6692 6.79898 99.278 7.15715C99.8868 7.50637 100.318 7.99438 100.573 8.62119L98.5692 9.62855C98.2331 8.97488 97.7424 8.64805 97.0973 8.64805C96.6339 8.64805 96.2477 8.80027 95.9388 9.10472C95.6389 9.40917 95.489 9.83002 95.489 10.3673C95.489 10.9135 95.6389 11.3433 95.9388 11.6567C96.2477 11.9612 96.6339 12.1134 97.0973 12.1134C97.7424 12.1134 98.2331 11.7865 98.5692 11.1329L100.573 12.1402C100.318 12.767 99.8868 13.2595 99.278 13.6177C98.6692 13.9669 97.9468 14.1415 97.1109 14.1415Z" fill="#332D34"/>
<path d="M109.019 10.3941C109.019 10.4121 109.005 10.6225 108.978 11.0254H103.608C103.717 11.4015 103.926 11.6925 104.235 11.8985C104.553 12.0955 104.948 12.194 105.42 12.194C105.775 12.194 106.079 12.1447 106.334 12.0462C106.597 11.9477 106.861 11.7865 107.124 11.5627L108.487 12.9596C107.769 13.7475 106.72 14.1415 105.339 14.1415C104.476 14.1415 103.717 13.9804 103.063 13.658C102.408 13.3356 101.9 12.8879 101.536 12.3149C101.182 11.7418 101.005 11.0926 101.005 10.3673C101.005 9.65093 101.177 9.0107 101.522 8.44658C101.877 7.8735 102.363 7.42578 102.981 7.10343C103.599 6.78107 104.294 6.61989 105.066 6.61989C105.802 6.61989 106.47 6.77212 107.07 7.07656C107.669 7.37206 108.142 7.80634 108.487 8.37942C108.841 8.94354 109.019 9.61512 109.019 10.3941ZM105.08 8.43315C104.68 8.43315 104.344 8.54508 104.071 8.76893C103.808 8.99279 103.64 9.29724 103.567 9.68227H106.593C106.52 9.29724 106.347 8.99279 106.075 8.76893C105.811 8.54508 105.48 8.43315 105.08 8.43315Z" fill="#332D34"/>
<path d="M115.024 6.61989C115.941 6.61989 116.677 6.88852 117.232 7.42578C117.795 7.96304 118.077 8.77341 118.077 9.85689V14.0207H115.487V10.2733C115.487 9.27933 115.083 8.78236 114.274 8.78236C113.829 8.78236 113.47 8.92563 113.197 9.21217C112.934 9.49871 112.802 9.92852 112.802 10.5016V14.0207H110.213V6.74078H112.68V7.53323C112.97 7.23774 113.316 7.01388 113.715 6.86166C114.115 6.70048 114.551 6.61989 115.024 6.61989Z" fill="#332D34"/>
<path d="M124.8 13.7252C124.582 13.8595 124.314 13.9624 123.996 14.0341C123.687 14.1057 123.355 14.1415 123.001 14.1415C122.038 14.1415 121.297 13.9087 120.779 13.4431C120.261 12.9775 120.002 12.2835 120.002 11.3612V8.91668H118.926V7.00941H120.002V5.11556H122.592V7.00941H124.282V8.91668H122.592V11.3343C122.592 11.594 122.66 11.8 122.796 11.9522C122.942 12.0955 123.133 12.1671 123.369 12.1671C123.669 12.1671 123.932 12.091 124.159 11.9388L124.8 13.7252Z" fill="#332D34"/>
<path d="M30.3315 4.45326C31.1765 4.45326 31.908 4.59205 32.5258 4.86964C33.1528 5.14723 33.6344 5.54123 33.9706 6.05163C34.3068 6.56203 34.4749 7.16646 34.4749 7.86491C34.4749 8.5544 34.3068 9.15883 33.9706 9.67818C33.6344 10.1886 33.1528 10.5826 32.5258 10.8602C31.908 11.1288 31.1765 11.2631 30.3315 11.2631H28.4097V13.8554H26.2017V4.45326H30.3315ZM30.2088 9.49014C30.8721 9.49014 31.3764 9.35135 31.7217 9.07376C32.067 8.78722 32.2396 8.38427 32.2396 7.86491C32.2396 7.3366 32.067 6.93364 31.7217 6.65606C31.3764 6.36951 30.8721 6.22624 30.2088 6.22624H28.4097V9.49014H30.2088Z" fill="#332D34"/>
<path d="M37.9321 7.58284C38.1865 7.23362 38.5272 6.96946 38.9543 6.79037C39.3905 6.61128 39.8902 6.52174 40.4536 6.52174V8.4559C40.2173 8.43799 40.0583 8.42904 39.9765 8.42904C39.3677 8.42904 38.8907 8.59917 38.5454 8.93944C38.2001 9.27076 38.0275 9.77221 38.0275 10.4438V13.8554H35.9013V6.62919H37.9321V7.58284Z" fill="#332D34"/>
<path d="M45.1404 13.9629C44.3681 13.9629 43.673 13.8062 43.0551 13.4928C42.4463 13.1704 41.9693 12.7272 41.624 12.163C41.2787 11.5989 41.1061 10.9587 41.1061 10.2423C41.1061 9.52596 41.2787 8.88572 41.624 8.32158C41.9693 7.75745 42.4463 7.31869 43.0551 7.00528C43.673 6.68292 44.3681 6.52174 45.1404 6.52174C45.9128 6.52174 46.6033 6.68292 47.2121 7.00528C47.8209 7.31869 48.298 7.75745 48.6432 8.32158C48.9885 8.88572 49.1612 9.52596 49.1612 10.2423C49.1612 10.9587 48.9885 11.5989 48.6432 12.163C48.298 12.7272 47.8209 13.1704 47.2121 13.4928C46.6033 13.8062 45.9128 13.9629 45.1404 13.9629ZM45.1404 12.2436C45.6856 12.2436 46.1309 12.0645 46.4761 11.7064C46.8305 11.3392 47.0077 10.8512 47.0077 10.2423C47.0077 9.63341 46.8305 9.14987 46.4761 8.79169C46.1309 8.42456 45.6856 8.24099 45.1404 8.24099C44.5953 8.24099 44.1455 8.42456 43.7911 8.79169C43.4367 9.14987 43.2596 9.63341 43.2596 10.2423C43.2596 10.8512 43.4367 11.3392 43.7911 11.7064C44.1455 12.0645 44.5953 12.2436 45.1404 12.2436Z" fill="#332D34"/>
<path d="M59.9732 6.52174C60.8909 6.52174 61.6178 6.79037 62.1539 7.32764C62.6991 7.85595 62.9717 8.6529 62.9717 9.71848V13.8554H60.8455V10.0408C60.8455 9.46775 60.7228 9.04242 60.4775 8.76483C60.2412 8.47829 59.9005 8.33502 59.4552 8.33502C58.9555 8.33502 58.5602 8.4962 58.2695 8.81856C57.9787 9.13196 57.8333 9.60207 57.8333 10.2289V13.8554H55.7071V10.0408C55.7071 8.90362 55.2437 8.33502 54.3169 8.33502C53.8262 8.33502 53.4355 8.4962 53.1447 8.81856C52.854 9.13196 52.7086 9.60207 52.7086 10.2289V13.8554H50.5824V6.62919H52.6132V7.46196C52.8858 7.15751 53.2174 6.92469 53.6081 6.76351C54.0079 6.60233 54.4441 6.52174 54.9166 6.52174C55.4345 6.52174 55.9025 6.62472 56.3204 6.83067C56.7384 7.02767 57.0746 7.31869 57.329 7.70373C57.6289 7.32764 58.006 7.03662 58.4603 6.83067C58.9237 6.62472 59.428 6.52174 59.9732 6.52174Z" fill="#332D34"/>
<path d="M68.4465 13.9629C67.6742 13.9629 66.9791 13.8062 66.3612 13.4928C65.7524 13.1704 65.2754 12.7272 64.9301 12.163C64.5848 11.5989 64.4121 10.9587 64.4121 10.2423C64.4121 9.52596 64.5848 8.88572 64.9301 8.32158C65.2754 7.75745 65.7524 7.31869 66.3612 7.00528C66.9791 6.68292 67.6742 6.52174 68.4465 6.52174C69.2188 6.52174 69.9094 6.68292 70.5182 7.00528C71.127 7.31869 71.604 7.75745 71.9493 8.32158C72.2946 8.88572 72.4672 9.52596 72.4672 10.2423C72.4672 10.9587 72.2946 11.5989 71.9493 12.163C71.604 12.7272 71.127 13.1704 70.5182 13.4928C69.9094 13.8062 69.2188 13.9629 68.4465 13.9629ZM68.4465 12.2436C68.9917 12.2436 69.4369 12.0645 69.7822 11.7064C70.1366 11.3392 70.3138 10.8512 70.3138 10.2423C70.3138 9.63341 70.1366 9.14987 69.7822 8.79169C69.4369 8.42456 68.9917 8.24099 68.4465 8.24099C67.9013 8.24099 67.4516 8.42456 67.0972 8.79169C66.7428 9.14987 66.5656 9.63341 66.5656 10.2423C66.5656 10.8512 66.7428 11.3392 67.0972 11.7064C67.4516 12.0645 67.9013 12.2436 68.4465 12.2436Z" fill="#332D34"/>
</svg>
