<svg width="18" height="18" viewBox="0 0 18 18" fill="none" xmlns="http://www.w3.org/2000/svg">
<g clip-path="url(#clip0)">
<path d="M6.39526 17.9989C5.80829 17.9989 5.22493 17.8856 4.67538 17.6621L2.41379 16.7424C0.950037 16.1471 0.00423939 14.7415 0.00423939 13.1613V2.92109C-0.0239462 0.882701 2.14286 -0.574831 4.02005 0.219039C4.0217 0.219707 4.02339 0.22041 4.02504 0.221078L6.04808 1.0619L10.7769 0.0779359C10.7831 0.0766356 10.7893 0.0754407 10.7954 0.0743161C11.6486 -0.0794042 12.5239 0.0119002 13.3269 0.338459L15.5885 1.25815C17.0522 1.85342 17.998 3.25907 17.998 4.83919V15.0765C17.998 16.049 17.5163 16.9537 16.7095 17.4966C15.9026 18.0395 14.8831 18.1449 13.9822 17.7785C13.9806 17.7778 13.9789 17.7771 13.9772 17.7765L11.9544 16.9358C11.9544 16.9358 7.2131 17.9251 7.20678 17.9262C6.93754 17.9748 6.66601 17.9989 6.39526 17.9989ZM2.91642 1.40723C2.62311 1.40723 2.3338 1.49491 2.0776 1.66733C1.65334 1.9528 1.41004 2.40978 1.41004 2.92113V13.1614C1.41004 14.1669 2.01192 15.0614 2.94338 15.4403L5.20497 16.36C5.75807 16.5849 6.36075 16.6486 6.94854 16.5444L11.88 15.5153C12.0185 15.4864 12.1626 15.5 12.2933 15.5543L14.5141 16.4774C14.9872 16.6689 15.5011 16.6154 15.9247 16.3303C16.349 16.0448 16.5923 15.5879 16.5923 15.0765V4.83922C16.5923 3.83368 15.9904 2.93919 15.0589 2.56037L12.7973 1.64069C12.2442 1.41577 11.6415 1.35198 11.0536 1.45622L6.12195 2.48239C5.98352 2.51124 5.83957 2.49761 5.70901 2.44331L3.48814 1.52028C3.30128 1.44465 3.10796 1.40723 2.91642 1.40723ZM11.8829 14.2001C11.4947 14.2001 11.1801 13.8855 11.1801 13.4973V3.51932C11.2172 2.58673 12.549 2.58744 12.5858 3.51932V13.4973C12.5858 13.8855 12.2711 14.2001 11.8829 14.2001ZM6.82219 14.4813V4.53551C6.78508 3.60292 5.45323 3.60363 5.41643 4.53551V14.4813C5.41643 14.8695 5.73111 15.1842 6.11931 15.1842C6.50751 15.1842 6.82219 14.8695 6.82219 14.4813Z" fill="white"/>
</g>
<defs>
<clipPath id="clip0">
<rect width="18" height="18" fill="white" transform="translate(0 -0.000976562)"/>
</clipPath>
</defs>
</svg>
