<svg width="18" height="18" viewBox="0 0 18 18" fill="none" xmlns="http://www.w3.org/2000/svg">
<g clip-path="url(#clip0)">
<path d="M5.34426 17.9974H1.78708C0.24091 18.0165 -0.585067 16.1128 0.480716 14.9971L2.31724 12.6674C1.78768 12.5336 1.35099 12.1646 1.12658 11.6391C0.846066 10.9823 0.971401 10.2551 1.45266 9.73184L3.63327 6.96386C2.27622 6.73292 1.6911 5.00313 2.65261 3.99736L5.59855 0.776314C5.59967 0.775083 5.6008 0.773853 5.60199 0.772623C6.52679 -0.25403 8.23243 -0.25389 9.1571 0.772623C9.15798 0.773572 9.15885 0.774486 9.1597 0.775435L11.171 2.96698C11.4335 3.25309 11.4145 3.69789 11.1283 3.96044C10.8422 4.22307 10.3974 4.2039 10.1348 3.91783L8.12517 1.72798C7.74343 1.29801 7.01621 1.29783 6.63427 1.72759L3.6891 4.94775C3.68798 4.94899 3.68685 4.95022 3.68569 4.95145C3.53367 5.11531 3.58651 5.29173 3.61629 5.35997C3.64607 5.42821 3.73945 5.58698 3.96298 5.58698H5.05917C5.32851 5.58698 5.57418 5.74083 5.69175 5.98316C5.80935 6.22546 5.77816 6.51368 5.61148 6.72522C5.61148 6.72522 2.50997 10.6604 2.4944 10.6767C2.26194 10.9162 2.43326 11.3186 2.76764 11.3165H3.7232C3.99258 11.3165 4.23829 11.4704 4.35585 11.7127C4.47342 11.9551 4.44216 12.2433 4.27538 12.4549C4.27538 12.4549 1.53331 15.9312 1.51616 15.9488C1.35806 16.111 1.40918 16.2903 1.43853 16.3598C1.46785 16.4293 1.56053 16.591 1.78704 16.591H5.34422C6.27718 16.6282 6.27648 17.9606 5.34426 17.9974ZM10.7233 17.2942C10.7233 16.9059 10.4085 16.5911 10.0201 16.5911H8.73504C8.71893 16.5911 8.70227 16.5911 8.68954 16.5609C8.67682 16.5307 8.68842 16.5188 8.69967 16.5073C8.71679 16.4897 10.652 14.0382 10.652 14.0382C11.0153 13.5834 10.6818 12.8961 10.1 12.8997H9.43501C9.40692 12.8997 9.39536 12.8937 9.38741 12.875C9.38207 12.8625 9.38066 12.8567 9.39936 12.8371C9.41476 12.821 11.5915 10.0658 11.5915 10.0658C11.7585 9.85429 11.79 9.56597 11.6724 9.32346C11.5549 9.08098 11.3092 8.92696 11.0397 8.92696H10.2819C10.2653 8.92696 10.2482 8.92696 10.2359 8.89897C10.2247 8.87331 10.234 8.86329 10.2457 8.85063C10.2481 8.84803 12.2843 6.58614 12.2843 6.58614C12.4698 6.37994 12.8204 6.38044 13.0054 6.58726L15.0638 8.84599C15.0652 8.84754 15.0666 8.84909 15.068 8.85063C15.0797 8.86329 15.089 8.87327 15.0778 8.89897C15.0656 8.92696 15.0484 8.92696 15.0318 8.92696H14.2389C13.9695 8.92696 13.7238 9.08088 13.6062 9.32325C13.4887 9.56562 13.5199 9.85387 13.6867 10.0654C13.6867 10.0654 15.8605 12.8209 15.876 12.8371C15.8947 12.8567 15.8933 12.8625 15.888 12.875C15.88 12.8937 15.8685 12.8997 15.8404 12.8997H15.1887C14.2557 12.9368 14.2564 14.2691 15.1887 14.3059H15.8404C17.0885 14.314 17.7722 12.8126 16.9184 11.893L15.6004 10.2213C15.9379 10.081 16.2122 9.81527 16.3667 9.46131C16.6003 8.92597 16.4985 8.32676 16.1012 7.89665C16.1012 7.89665 14.0394 5.63416 14.038 5.63265C13.3129 4.82766 11.9756 4.82776 11.2505 5.63265C11.2482 5.63521 9.21085 7.89837 9.21085 7.89837C8.52884 8.60678 8.79712 9.83074 9.68607 10.2097L8.35713 11.8928C7.97065 12.3171 7.86947 12.9015 8.09406 13.4274C8.23053 13.7469 8.47396 13.9987 8.77322 14.1494L7.66314 15.5568C7.2775 15.9762 7.17129 16.58 7.39373 17.1074C7.62176 17.6481 8.14823 17.9974 8.73497 17.9974H10.0201C10.4085 17.9974 10.7233 17.6826 10.7233 17.2942ZM17.8824 17.1017C18.114 16.5526 17.9977 15.925 17.5861 15.5027C17.3151 15.2246 16.8698 15.2188 16.5918 15.4899C16.3137 15.7609 16.3079 16.2061 16.579 16.4842C16.5868 16.4922 16.6053 16.5112 16.5867 16.5552C16.5715 16.5911 16.5554 16.5911 16.5436 16.5911H12.7624C11.8294 16.6282 11.8301 17.9606 12.7624 17.9974H16.5436C17.1274 17.9974 17.6529 17.6458 17.8824 17.1017Z" fill="#81B7D8"/>
</g>
<defs>
<clipPath id="clip0">
<rect width="18" height="18" fill="white"/>
</clipPath>
</defs>
</svg>
