<svg width="18" height="18" viewBox="0 0 18 18" fill="none" xmlns="http://www.w3.org/2000/svg">
<g clip-path="url(#clip0)">
<path d="M1.16043 6.89062C1.08393 6.89062 1.00609 6.87804 0.929731 6.85153C0.56291 6.72416 0.368778 6.32352 0.496149 5.95666C1.54961 2.83887 4.43755 0.46044 7.70195 0.0179279C8.20296 -0.054494 8.71075 0.0946036 9.09476 0.427111C9.48152 0.761939 9.70318 1.24734 9.70318 1.75879V3.09357C9.66612 4.02658 8.33388 4.0257 8.2971 3.09357V1.75879C8.2971 1.61764 8.22015 1.52993 8.17427 1.49024C8.13004 1.45195 8.03596 1.3906 7.90314 1.40969C5.08492 1.81715 2.75574 3.73619 1.8246 6.41795C1.72373 6.70844 1.45152 6.89062 1.16043 6.89062ZM17.5729 9.02439C17.9054 8.64038 18.0545 8.13273 17.9821 7.63158C17.4891 4.41731 15.1215 1.49656 12.0434 0.425775C11.6766 0.29844 11.2759 0.492537 11.1485 0.859357C11.0211 1.22621 11.2153 1.62685 11.5821 1.75422C14.2638 2.68537 16.1829 5.01454 16.5904 7.83277C16.6095 7.9656 16.5481 8.05967 16.5098 8.1039C16.4701 8.14978 16.3824 8.22674 16.2413 8.22674H14.9065C13.9736 8.26386 13.9742 9.59607 14.9065 9.63281H16.2413C16.7527 9.63281 17.2381 9.41115 17.5729 9.02439ZM10.2985 17.9821C13.5629 17.5395 16.4509 15.1611 17.5043 12.0433C17.6317 11.6765 17.4375 11.2758 17.0707 11.1485C16.7039 11.0211 16.3032 11.2152 16.1759 11.582C15.2447 14.2638 12.9155 16.1828 10.0973 16.5903C9.96456 16.6095 9.87045 16.5481 9.82619 16.5098C9.78031 16.4701 9.73833 16.3824 9.73833 16.2412V14.9064C9.73833 14.5181 9.38857 14.2033 9.00023 14.2033C8.61189 14.2033 8.2971 14.5181 8.2971 14.9064V16.2412C8.2971 16.7527 8.51894 17.238 8.90569 17.5729C9.226 17.8502 9.63234 18 10.0492 18C10.1321 18 10.2154 17.9941 10.2985 17.9821ZM6.85162 17.1058C6.97899 16.7389 6.78486 16.3383 6.41804 16.2109C3.73632 15.2798 1.81728 12.9506 1.40979 10.1324C1.39059 9.99956 1.45201 9.90548 1.49033 9.86125C1.53002 9.81538 1.61774 9.73824 1.75889 9.73824H3.09367C4.02668 9.70119 4.0258 8.36894 3.09367 8.33217H1.75885C1.2474 8.33217 0.762035 8.55401 0.427172 8.94076C0.0946646 9.32481 -0.0544329 9.83246 0.0179889 10.3336C0.4605 13.598 2.83896 16.486 5.95675 17.5394C6.03308 17.5659 6.11092 17.5785 6.18742 17.5785C6.47851 17.5785 6.75072 17.3963 6.85162 17.1058ZM9.00023 11.9181C7.35249 11.9181 6.01195 10.5776 6.01195 8.92986C6.17609 4.9655 11.825 4.96666 11.9885 8.9299C11.9885 10.5776 10.648 11.9181 9.00023 11.9181ZM9.00023 7.34783C8.1279 7.34783 7.4182 8.05753 7.4182 8.92986C7.50511 11.0287 10.4957 11.028 10.5823 8.92986C10.5823 8.05753 9.87256 7.34783 9.00023 7.34783Z" fill="white"/>
</g>
<defs>
<clipPath id="clip0">
<rect width="18" height="18" fill="white"/>
</clipPath>
</defs>
</svg>
