<svg width="18" height="18" viewBox="0 0 18 18" fill="none" xmlns="http://www.w3.org/2000/svg">
<g clip-path="url(#clip0)">
<path d="M12.5848 3.4883V7.3893C12.5477 8.32188 11.2159 8.32118 11.1791 7.3893V3.4883C11.2162 2.55572 12.5481 2.55642 12.5848 3.4883ZM5.41542 4.50449V14.4503C5.45254 15.3829 6.78439 15.3822 6.82119 14.4503V4.50449C6.78408 3.57188 5.45222 3.57261 5.41542 4.50449ZM15.5875 1.25929L13.3259 0.339602C12.5229 0.0130432 11.6476 -0.0782963 10.7944 0.0754591C10.7883 0.0765837 6.04707 1.06301 6.04707 1.06301L4.02403 0.222186C4.02238 0.221483 4.02073 0.220815 4.01904 0.220147C2.14136 -0.573863 -0.0249532 0.884301 0.00323237 2.92224V13.1625C0.00323237 14.7426 0.94903 16.1483 2.41278 16.7435L4.67438 17.6633C5.47798 17.9903 6.35542 18.0809 7.20584 17.9274C7.21217 17.9262 9.24915 17.5012 9.24915 17.5012C9.62917 17.422 9.87293 17.0496 9.79364 16.6696C9.71432 16.2896 9.3419 16.0458 8.96199 16.1251L6.9475 16.5455C6.35978 16.6497 5.75706 16.586 5.20396 16.3611L2.94237 15.4414C2.01091 15.0626 1.40903 14.1681 1.40903 13.1625V2.92224C1.40903 2.41089 1.65233 1.95391 2.07659 1.66844C2.50015 1.38345 3.01417 1.32996 3.48717 1.52139L5.708 2.44442C5.83856 2.49872 5.98251 2.51235 6.12094 2.4835L11.0526 1.45733C11.6405 1.35309 12.2432 1.41684 12.7964 1.6418L15.0579 2.56148C15.9894 2.9403 16.5913 3.83479 16.5913 4.84033V9.70579C16.6284 10.6384 17.9603 10.6377 17.997 9.70579V4.84037C17.997 3.26022 17.0512 1.85456 15.5875 1.25929ZM12.7957 16.102C10.9547 16.102 9.457 14.6043 9.457 12.7634C9.64038 8.33415 15.9517 8.33541 16.1344 12.7634C16.1344 14.6043 14.6367 16.102 12.7957 16.102ZM12.7957 10.8304C11.7299 10.8304 10.8628 11.6975 10.8628 12.7634C10.9689 15.3276 14.6228 15.3269 14.7286 12.7634C14.7286 11.6975 13.8615 10.8304 12.7957 10.8304ZM17.7912 17.794C18.0657 17.5194 18.0657 17.0744 17.7912 16.7999L16.8071 15.8159C16.1214 15.1827 15.1802 16.125 15.8131 16.8099L16.7972 17.794C16.9344 17.9312 17.1143 17.9998 17.2942 17.9998C17.4741 17.9998 17.6539 17.9312 17.7912 17.794Z" fill="#81B7D8"/>
</g>
<defs>
<clipPath id="clip0">
<rect width="18" height="18" fill="white"/>
</clipPath>
</defs>
</svg>
