<svg width="18" height="18" viewBox="0 0 18 18" fill="none" xmlns="http://www.w3.org/2000/svg">
<path d="M9.47274 4.46094C9.47274 3.08098 11.017 2 12.9884 2C14.9598 2 16.504 3.08098 16.504 4.46094C16.504 5.84089 14.9598 6.92188 12.9884 6.92188C11.017 6.92188 9.47274 5.84089 9.47274 4.46094ZM10.879 4.46094C10.879 4.67599 11.0588 4.91171 11.3723 5.10767C11.7871 5.36695 12.3762 5.51562 12.9884 5.51562C13.6006 5.51562 14.1896 5.36695 14.6045 5.10767C14.9179 4.91175 15.0977 4.67602 15.0977 4.46094C15.0977 4.24585 14.9179 4.01016 14.6045 3.8142C14.1896 3.55493 13.6006 3.40625 12.9884 3.40625C12.3762 3.40625 11.7871 3.55493 11.3723 3.8142C11.0588 4.01016 10.879 4.24589 10.879 4.46094ZM15.3533 13.3134C14.0523 14.2556 11.8541 14.2556 10.5531 13.3134C10.2387 13.0856 9.79902 13.1559 9.57121 13.4704C9.34343 13.7849 9.41375 14.2245 9.72825 14.4522C10.5985 15.0826 11.7438 15.4297 12.9532 15.4297C14.1626 15.4297 15.3079 15.0826 16.1781 14.4523C16.4926 14.2245 16.5629 13.7849 16.3352 13.4704C16.1074 13.1559 15.6678 13.0855 15.3533 13.3134ZM15.3533 10.4657C14.0523 11.408 11.8541 11.408 10.5531 10.4657C10.2387 10.2379 9.79902 10.3082 9.57121 10.6227C9.34343 10.9372 9.41375 11.3768 9.72825 11.6046C10.5985 12.2349 11.7438 12.582 12.9532 12.582C14.1626 12.582 15.3079 12.2349 16.1781 11.6046C16.4926 11.3768 16.5629 10.9372 16.3352 10.6227C16.1074 10.3082 15.6678 10.2379 15.3533 10.4657ZM15.3533 7.61804C14.0523 8.5603 11.8541 8.5603 10.5531 7.61804C10.2387 7.39026 9.79902 7.46054 9.57121 7.77505C9.34343 8.08956 9.41375 8.52915 9.72825 8.75693C10.5985 9.38724 11.7438 9.73438 12.9532 9.73438C14.1626 9.73438 15.3079 9.38724 16.1781 8.75696C16.4926 8.52918 16.5629 8.08959 16.3352 7.77508C16.1074 7.46057 15.6678 7.39023 15.3533 7.61804ZM8.06649 10.1562C8.06649 11.5362 6.52225 12.6172 4.55086 12.6172C2.57948 12.6172 1.03524 11.5362 1.03524 10.1562C1.03524 8.7763 2.57948 7.69531 4.55086 7.69531C6.52225 7.69531 8.06649 8.7763 8.06649 10.1562ZM6.66024 10.1562C6.66024 9.9412 6.48045 9.70548 6.16696 9.50952C5.75212 9.25024 5.16307 9.10156 4.55086 9.10156C3.93865 9.10156 3.34961 9.25024 2.93477 9.50952C2.62128 9.70544 2.44149 9.94116 2.44149 10.1562C2.44149 10.3713 2.62128 10.607 2.93477 10.803C3.34961 11.0623 3.93865 11.2109 4.55086 11.2109C5.16307 11.2109 5.75212 11.0623 6.16696 10.803C6.48041 10.607 6.66024 10.3713 6.66024 10.1562ZM6.91575 13.3134C5.61476 14.2556 3.41662 14.2556 2.11562 13.3134C1.80115 13.0856 1.36156 13.1559 1.13371 13.4704C0.905933 13.7849 0.976246 14.2245 1.29075 14.4522C2.16101 15.0826 3.3063 15.4297 4.51571 15.4297C5.72512 15.4297 6.8704 15.0826 7.74062 14.4523C8.05513 14.2245 8.12541 13.7849 7.89767 13.4704C7.66993 13.1559 7.2303 13.0855 6.91575 13.3134Z" fill="#81B7D8"/>
</svg>
