<svg width="46" height="46" viewBox="0 0 46 46" fill="none" xmlns="http://www.w3.org/2000/svg">
<path d="M22.9938 11.1988C16.4633 11.1988 11.1928 16.4693 11.1928 23C11.1928 29.5307 16.4633 34.8012 22.9938 34.8012C29.5244 34.8012 34.7948 29.5307 34.7948 23C34.7948 16.4693 29.5244 11.1988 22.9938 11.1988ZM22.9938 30.6699C18.7705 30.6699 15.324 27.2234 15.324 23C15.324 18.7766 18.7705 15.3301 22.9938 15.3301C27.2171 15.3301 30.6636 18.7766 30.6636 23C30.6636 27.2234 27.2171 30.6699 22.9938 30.6699ZM35.2781 7.96509C33.7534 7.96509 32.5221 9.19642 32.5221 10.7212C32.5221 12.246 33.7534 13.4773 35.2781 13.4773C36.8029 13.4773 38.0342 12.2517 38.0342 10.7212C38.0347 10.3591 37.9637 10.0005 37.8253 9.66595C37.687 9.33136 37.484 9.02734 37.228 8.77133C36.972 8.51531 36.668 8.31231 36.3334 8.17396C35.9988 8.03562 35.6402 7.96464 35.2781 7.96509ZM45.9974 23C45.9974 19.8239 46.0262 16.6765 45.8478 13.5061C45.6695 9.8236 44.8294 6.55539 42.1366 3.86257C39.4381 1.164 36.1757 0.329683 32.4933 0.151312C29.3172 -0.0270581 26.1699 0.00171146 22.9996 0.00171146C19.8235 0.00171146 16.6762 -0.0270581 13.5058 0.151312C9.82341 0.329683 6.55527 1.16975 3.8625 3.86257C1.16398 6.56114 0.329677 9.8236 0.15131 13.5061C-0.0270576 16.6822 0.00171143 19.8296 0.00171143 23C0.00171143 26.1704 -0.0270576 29.3235 0.15131 32.4939C0.329677 36.1764 1.16973 39.4446 3.8625 42.1374C6.56102 44.836 9.82341 45.6703 13.5058 45.8487C16.6819 46.0271 19.8292 45.9983 22.9996 45.9983C26.1757 45.9983 29.323 46.0271 32.4933 45.8487C36.1757 45.6703 39.4439 44.8302 42.1366 42.1374C44.8352 39.4389 45.6695 36.1764 45.8478 32.4939C46.032 29.3235 45.9974 26.1761 45.9974 23ZM40.9341 36.5677C40.5141 37.6149 40.0077 38.3974 39.1965 39.2029C38.3852 40.0142 37.6084 40.5206 36.5612 40.9406C33.5347 42.1432 26.3483 41.8728 22.9938 41.8728C19.6394 41.8728 12.4471 42.1432 9.42065 40.9464C8.37346 40.5263 7.59095 40.02 6.78542 39.2087C5.97414 38.3974 5.4678 37.6206 5.04778 36.5734C3.85099 33.5411 4.12142 26.3545 4.12142 23C4.12142 19.6455 3.85099 12.4531 5.04778 9.42658C5.4678 8.37937 5.97414 7.59684 6.78542 6.7913C7.5967 5.98575 8.37346 5.47366 9.42065 5.05363C12.4471 3.85682 19.6394 4.12725 22.9938 4.12725C26.3483 4.12725 33.5405 3.85682 36.567 5.05363C37.6142 5.47366 38.3967 5.98 39.2022 6.7913C40.0135 7.6026 40.5198 8.37937 40.9399 9.42658C42.1367 12.4531 41.8662 19.6455 41.8662 23C41.8662 26.3545 42.1366 33.5411 40.9341 36.5677Z" fill="#81B7D8"/>
</svg>
