<svg width="51" height="30" viewBox="0 0 51 30" fill="none" xmlns="http://www.w3.org/2000/svg">
<path d="M49.8307 2.03159C50.187 0.85952 49.8307 0 48.1458 0H42.5644C41.1442 0 40.4952 0.743574 40.1389 1.56024C40.1389 1.56024 37.3011 8.41371 33.2798 12.8575C31.9818 14.1506 31.3888 14.5589 30.6813 14.5589C30.3275 14.5589 29.8134 14.1506 29.8134 12.9785V2.03159C29.8134 0.625106 29.4036 0 28.2202 0H19.4497C18.564 0 18.0295 0.650311 18.0295 1.27038C18.0295 2.60124 20.0402 2.90876 20.2463 6.65939V14.7958C20.2463 16.5779 19.9231 16.903 19.2105 16.903C17.3195 16.903 12.7179 10.0244 9.987 2.15006C9.45508 0.620064 8.91806 0.0025216 7.4928 0.0025216H1.91392C0.318139 0.0025216 0 0.746094 0 1.56276C0 3.02974 1.89102 10.289 8.80862 19.8899C13.4204 26.446 19.9129 30 25.8278 30C29.3731 30 29.8108 29.2111 29.8108 27.8499V22.8945C29.8108 21.3166 30.1493 20.999 31.2717 20.999C32.0964 20.999 33.5165 21.4124 36.8277 24.5707C40.6097 28.3162 41.2358 29.9975 43.361 29.9975H48.9399C50.5331 29.9975 51.3297 29.2085 50.8716 27.6508C50.3702 26.1007 48.5632 23.8447 46.1657 21.1754C44.8626 19.653 42.9156 18.0146 42.3226 17.1954C41.4954 16.1393 41.7347 15.673 42.3226 14.7353C42.3251 14.7379 49.1231 5.25542 49.8307 2.03159Z" fill="#81B7D8"/>
</svg>
