<svg width="18" height="18" viewBox="0 0 18 18" fill="none" xmlns="http://www.w3.org/2000/svg">
<path d="M0.828339 17.1272L1.97935 12.9459C1.26961 11.7194 0.896245 10.3286 0.896753 8.91297C0.896753 4.46305 4.535 0.843018 8.99816 0.843018C11.1674 0.843018 13.1999 1.68489 14.7292 3.20823C16.2585 4.73165 17.0997 6.76019 17.0997 8.91696C17.0997 13.3668 13.4615 16.9868 8.99823 16.9868H8.99422C7.63789 16.9868 6.30575 16.6461 5.12253 16.0047L0.828339 17.1273V17.1272Z" fill="#9ED198"/>
<path d="M0.534607 17.4199L1.72584 13.0903C0.993396 11.8235 0.602951 10.3843 0.607029 8.91303C0.607029 4.30279 4.37402 0.554443 9.00234 0.554443C11.248 0.554443 13.3568 1.42433 14.9385 3.00384C16.5242 4.58336 17.3975 6.68404 17.3935 8.91702C17.3935 13.5273 13.6265 17.2756 8.99819 17.2756H8.99426C7.59239 17.2751 6.21296 16.925 4.98173 16.2573L0.534607 17.42V17.4199ZM5.19098 14.7419L5.44453 14.8943C6.51511 15.5277 7.74255 15.8605 8.99426 15.8645H8.99826C12.8417 15.8645 15.9728 12.7495 15.9728 8.91702C15.9728 7.06092 15.2484 5.31702 13.9324 4.00211C12.6163 2.6872 10.8616 1.96559 8.99826 1.96559C5.15076 1.96559 2.01968 5.0805 2.01968 8.91303C2.01968 10.2239 2.38586 11.5028 3.08618 12.6092L3.2512 12.8738L2.54688 15.4355L5.19098 14.7419Z" fill="white"/>
<path d="M6.9014 5.41342C6.7444 5.06462 6.57937 5.05657 6.43052 5.05258C6.30979 5.04858 6.16896 5.04858 6.02805 5.04858C5.88722 5.04858 5.66179 5.10069 5.46865 5.30913C5.27543 5.51764 4.73613 6.02276 4.73613 7.0531C4.73613 8.07931 5.48875 9.07351 5.59338 9.2138C5.69801 9.35416 7.04625 11.531 9.17524 12.3688C10.9461 13.0664 11.3083 12.9261 11.6906 12.89C12.077 12.8539 12.9302 12.3849 13.1073 11.8958C13.2803 11.4067 13.2803 10.9898 13.228 10.9016C13.1757 10.8134 13.0348 10.7613 12.8255 10.657C12.6163 10.5528 11.586 10.0477 11.3928 9.97554C11.1996 9.9034 11.0588 9.87133 10.9219 10.0798C10.781 10.2882 10.3786 10.7573 10.2578 10.8976C10.1371 11.0379 10.0124 11.0539 9.80306 10.9497C9.59381 10.8455 8.91769 10.6249 8.11683 9.91139C7.49301 9.35815 7.07043 8.67261 6.94964 8.46417C6.82891 8.25574 6.93761 8.1434 7.04224 8.03925C7.13477 7.94701 7.25149 7.79467 7.35618 7.67441C7.46081 7.55416 7.49702 7.46598 7.56543 7.32562C7.63385 7.18533 7.60165 7.06508 7.54933 6.96086C7.49702 6.85657 7.08654 5.8263 6.9014 5.41342Z" fill="white"/>
</svg>
