<svg width="402" height="50" viewBox="0 0 402 50" fill="none" xmlns="http://www.w3.org/2000/svg">
<g clip-path="url(#clip0)">
<path d="M24.3824 35.3524C16.5951 35.5064 9.90495 28.6892 10.0601 20.9181C10.06 17.5124 11.1866 13.4165 13.2324 9.38501C15.1847 5.53754 17.6592 2.39488 20.0213 0.762818C21.2984 -0.119516 22.8951 -0.244308 24.2926 0.428965C25.6781 1.09648 26.5679 2.40914 26.6727 3.94053C26.7908 5.66555 27.8024 8.08631 28.7959 10.0677C30.1207 7.50404 33.8218 7.02909 35.7435 9.21295C44.4785 19.3333 38.7124 34.9144 24.3824 35.3524ZM22.441 3.91036C22.3802 3.91036 22.3122 3.92764 22.2416 3.97646C18.1785 6.72648 13.7711 15.9794 13.9661 20.9183C13.966 26.822 18.5414 31.4466 24.3824 31.4466C30.8071 31.4466 36.034 26.2774 36.034 19.9236C36.034 16.9589 34.1578 13.267 32.8609 11.8485C32.7621 11.7406 32.6396 11.701 32.4965 11.7313C32.3967 11.7522 32.2652 11.8139 32.2059 11.9888C32.1356 12.1954 32.1356 12.1954 30.4711 15.0495C30.1267 15.64 29.4987 16.0074 28.8152 16.0182C28.1283 16.0271 27.4923 15.6818 27.1293 15.1027C26.7148 14.4412 23.071 8.51634 22.776 4.2074C22.773 4.16287 22.7542 3.91036 22.441 3.91036ZM24.4749 27.5407C22.693 27.5407 21.0269 26.8461 19.7832 25.5846C18.5619 24.3459 17.8842 22.6998 17.8719 20.9443C17.8718 20.9356 17.8717 20.9269 17.8717 20.9181V20.8955C17.8717 20.8903 17.8717 20.885 17.8717 20.8799C17.8783 18.8294 18.4085 16.7479 18.9272 14.9803C19.2309 13.9453 20.3162 13.3526 21.351 13.6562C22.3859 13.9598 22.9786 15.045 22.6751 16.0799C22.2326 17.5878 21.7803 19.3393 21.7776 20.904C21.9084 24.4363 26.6267 24.4625 27.5226 21.35C27.815 20.3118 28.8938 19.7075 29.9318 19.9996C30.9699 20.2919 31.5746 21.3706 31.2822 22.4088C30.4315 25.4305 27.6322 27.5407 24.4749 27.5407ZM39.7446 3.91026V1.95733C39.6415 -0.63382 35.941 -0.631867 35.8388 1.95733V3.91026C35.8388 4.98886 36.7131 5.86319 37.7917 5.86319C38.8703 5.86319 39.7446 4.98886 39.7446 3.91026ZM11.8178 3.91026V1.95733C11.7146 -0.63382 8.01413 -0.631867 7.91189 1.95733V3.91026C7.91189 4.98886 8.78622 5.86319 9.86482 5.86319C10.9434 5.86319 11.8178 4.98886 11.8178 3.91026ZM7.81425 13.6749V11.722C7.71113 9.13083 4.01062 9.13279 3.90839 11.722V13.6749C3.90839 14.7535 4.78271 15.6278 5.86132 15.6278C6.93992 15.6278 7.81425 14.7535 7.81425 13.6749ZM44.1387 15.6278C43.0601 15.6278 42.1858 14.7535 42.1858 13.6749V11.722C42.2889 9.13083 45.9894 9.13279 46.0917 11.722V13.6749C46.0917 14.7535 45.2173 15.6278 44.1387 15.6278Z" fill="#D47757"/>
<path d="M45.7681 45.7028C46.8013 46.0124 47.3877 47.101 47.078 48.1342C46.8244 48.9803 46.0483 49.5268 45.2081 49.5269C45.0224 49.5269 44.8337 49.5001 44.6466 49.4441L5.88093 37.8242C4.84773 37.5145 4.26127 36.426 4.571 35.3928C4.88064 34.3597 5.9691 33.7731 7.0024 34.0828L45.7681 45.7028Z" fill="#81B7D8"/>
<path d="M13.74 47.2782L6.51417 49.4441C6.32717 49.5001 6.13833 49.5268 5.9527 49.5269C5.11245 49.5269 4.33636 48.9804 4.08277 48.1342C3.77304 47.1011 4.3595 46.0124 5.3927 45.7028L12.6185 43.5369C13.6518 43.2268 14.7403 43.8136 15.0499 44.8468C15.3597 45.8799 14.7732 46.9686 13.74 47.2782Z" fill="#81B7D8"/>
<path d="M45.2798 37.8242L38.9328 39.7266C38.7458 39.7827 38.557 39.8094 38.3713 39.8094C37.5311 39.8094 36.755 39.2629 36.5014 38.4167C36.1917 37.3836 36.7781 36.2949 37.8113 35.9853L44.1584 34.0828C45.1916 33.7729 46.2801 34.3597 46.5898 35.3928C46.8995 36.4259 46.313 37.5145 45.2798 37.8242Z" fill="#81B7D8"/>
</g>
<g clip-path="url(#clip1)">
<path d="M201.885 32.3436C201.704 32.545 197.437 37.301 195.364 39.3736C193.93 40.7801 192.533 41.3926 190.881 41.1584C189.256 40.9048 187.94 39.7647 186.975 38.7997C185.867 37.6912 182.493 34.3181 186.401 30.4105C188.48 28.3318 193.332 24.0587 193.538 23.8778C194.315 23.1943 195.499 23.2699 196.182 24.0467C196.866 24.8235 196.79 26.0074 196.014 26.691C195.964 26.7345 191.045 31.0658 189.051 33.0602C188.685 33.4264 188.26 33.9415 188.319 34.3163C188.364 34.6015 188.626 35.1513 189.625 36.15C190.624 37.1488 191.173 37.4113 191.459 37.4558C191.834 37.5145 192.348 37.0901 192.715 36.7239C194.716 34.7227 199.052 29.8904 199.095 29.8417C200.829 28.057 203.471 30.4287 201.885 32.3436ZM224.13 31.28H223.244C222.449 27.9429 219.55 25.3605 215.953 25.1307C212.447 24.9068 208.643 23.0681 205.782 20.2164C202.926 17.351 201.087 13.5469 200.863 10.0402C200.634 6.45147 198.064 3.55641 194.737 2.7543V1.86376C194.638 -0.62219 191.087 -0.620316 190.989 1.86376V2.75496C187.3 3.57093 184.558 7.26463 184.871 11.0495C185.096 14.5636 186.027 18.1335 187.638 21.6599C188.068 22.6011 189.179 23.0154 190.121 22.5854C191.062 22.1553 191.476 21.0438 191.046 20.1025C189.625 16.9933 188.806 13.8671 188.611 10.8107C188.539 9.67404 188.913 8.57777 189.665 7.72367C190.417 6.86966 191.457 6.35994 192.594 6.28855C194.945 6.14044 196.973 7.93118 197.123 10.2791C197.403 14.667 199.648 19.3709 203.132 22.8661C206.623 26.3456 211.327 28.5902 215.715 28.8703C218.063 29.0203 219.853 31.0523 219.705 33.4C219.634 34.5363 219.124 35.5764 218.27 36.3286C217.416 37.0807 216.32 37.4556 215.183 37.3825C212.115 37.1866 209.068 36.418 206.129 35.0981C205.185 34.674 204.077 35.0956 203.653 36.0396C203.229 36.9835 203.65 38.0924 204.594 38.5163C207.944 40.0209 212.763 41.1388 215.466 41.1388C217.414 41.1388 219.272 40.4392 220.747 39.1406C221.996 38.0406 222.851 36.6124 223.233 35.0271H224.13C226.616 34.9283 226.614 31.378 224.13 31.28ZM184.961 41.1121C185.688 41.8486 185.68 43.0349 184.943 43.7618L181.196 47.4601C180.46 48.1868 179.274 48.1794 178.546 47.4426C177.82 46.7061 177.827 45.5198 178.564 44.7929L182.311 41.0946C183.048 40.3678 184.234 40.3755 184.961 41.1121Z" fill="#81B7D8"/>
<path d="M217.494 13.121C217.34 13.3997 217.336 13.5211 217.336 13.5211C217.349 13.586 217.478 13.8017 217.563 13.9443C217.858 14.4379 218.304 15.1838 218.271 16.2085C218.242 17.104 217.796 17.8459 217.363 18.4535C216.759 19.302 215.583 19.4885 214.75 18.8924C213.907 18.292 213.71 17.1221 214.311 16.2793C214.375 16.1886 214.424 16.116 214.46 16.0588C214.424 15.9953 214.382 15.9252 214.346 15.8658L214.346 15.8654C214.045 15.3619 213.591 14.601 213.588 13.5298C213.586 12.7616 213.815 11.993 214.287 11.18C214.316 11.1297 214.466 10.9071 214.489 10.8653C214.448 10.7903 214.392 10.6961 214.346 10.6196L214.346 10.6192C214.045 10.1157 213.591 9.35483 213.588 8.28359C213.587 7.54247 213.823 6.7739 214.31 5.93404C214.829 5.03891 215.975 4.73397 216.87 5.25316C217.766 5.77225 218.07 6.91874 217.551 7.81387C217.391 8.08995 217.348 8.23769 217.338 8.28265C217.359 8.35573 217.481 8.5608 217.563 8.69813C217.858 9.19175 218.304 9.93764 218.271 10.9623C218.248 11.6872 217.993 12.3942 217.494 13.121Z" fill="#D47757"/>
<path d="M209.963 9.6877C209.8 9.96856 209.758 10.1112 209.748 10.1522C209.767 10.2226 209.89 10.4288 209.973 10.5684L209.975 10.572C210.27 11.0655 210.715 11.8115 210.683 12.8362C210.654 13.7315 210.207 14.4734 209.775 15.081C209.171 15.9296 207.995 16.1161 207.161 15.52C206.319 14.9195 206.122 13.7496 206.722 12.9068C206.787 12.8161 206.835 12.7435 206.871 12.6864C206.835 12.6229 206.793 12.5528 206.758 12.4934C206.436 11.9542 205.949 11.1395 206.004 9.97109C206.036 9.29198 206.271 8.5844 206.721 7.80759C207.241 6.91237 208.387 6.60771 209.282 7.1269C210.177 7.64608 210.482 8.79257 209.963 9.6877Z" fill="#D47757"/>
</g>
<g clip-path="url(#clip2)">
<path d="M118.595 46.1177C118.595 45.0821 117.756 44.2427 116.72 44.2427H113.293C113.25 44.2427 113.206 44.2427 113.172 44.1622C113.138 44.0817 113.169 44.0499 113.199 44.0192C113.245 43.9723 118.405 37.4351 118.405 37.4351C119.374 36.2221 118.485 34.3895 116.933 34.3988H115.16C115.085 34.3988 115.054 34.3829 115.033 34.3331C115.019 34.2998 115.015 34.2843 115.065 34.2321C115.106 34.1891 120.911 26.8419 120.911 26.8419C121.356 26.2779 121.44 25.509 121.126 24.8623C120.813 24.2157 120.158 23.805 119.439 23.805H117.418C117.374 23.805 117.328 23.805 117.296 23.7304C117.266 23.6619 117.291 23.6352 117.322 23.6014C117.328 23.5945 122.758 17.5628 122.758 17.5628C123.253 17.0129 124.188 17.0143 124.681 17.5658L130.17 23.5891C130.174 23.5932 130.178 23.5973 130.181 23.6014C130.213 23.6352 130.237 23.6618 130.207 23.7304C130.175 23.805 130.129 23.805 130.085 23.805H127.97C127.252 23.805 126.597 24.2154 126.283 24.8617C125.97 25.5081 126.053 26.2767 126.498 26.8408C126.498 26.8408 132.295 34.1887 132.336 34.2321C132.386 34.2843 132.382 34.2998 132.368 34.3331C132.347 34.3829 132.316 34.3988 132.241 34.3988H130.503C128.015 34.4978 128.017 38.0508 130.503 38.1489H132.241C135.569 38.1705 137.393 34.1668 135.116 31.7145L131.601 27.2565C132.501 26.8825 133.233 26.1738 133.645 25.2299C134.267 23.8024 133.996 22.2044 132.937 21.0575C132.937 21.0575 127.438 15.0242 127.435 15.0201C125.501 12.8735 121.935 12.8738 120.001 15.0201C119.995 15.027 114.562 21.0621 114.562 21.0621C112.744 22.9512 113.459 26.2151 115.829 27.2257L112.286 31.714C111.255 32.8453 110.985 34.4038 111.584 35.8061C111.948 36.6582 112.597 37.3297 113.395 37.7315L110.435 41.4846C109.407 42.6029 109.123 44.2131 109.717 45.6195C110.325 47.0612 111.729 47.9928 113.293 47.9928H116.72C117.756 47.9928 118.595 47.1533 118.595 46.1177ZM137.686 45.6042C138.304 44.1401 137.994 42.4664 136.896 41.3402C136.173 40.5986 134.986 40.5832 134.245 41.3061C133.503 42.0289 133.488 43.216 134.211 43.9576C134.232 43.9791 134.281 44.0295 134.231 44.147C134.191 44.2427 134.148 44.2427 134.116 44.2427H124.033C121.545 44.3417 121.547 47.8946 124.033 47.9928H134.116C135.673 47.9928 137.074 47.0552 137.686 45.6042Z" fill="#81B7D8"/>
<path d="M95.7655 47.9858H105.251C107.737 47.8877 107.739 44.3348 105.251 44.2356H95.7654C95.1614 44.2356 94.9142 43.8043 94.836 43.6189C94.7578 43.4335 94.6214 42.9555 95.043 42.5229C95.0888 42.476 102.401 33.2059 102.401 33.2059C102.846 32.6418 102.929 31.8732 102.616 31.2268C102.302 30.5805 101.647 30.1701 100.929 30.1701H98.3803C97.4887 30.1759 97.0318 29.1026 97.6517 28.464C97.6932 28.4205 105.964 17.9268 105.964 17.9268C106.408 17.3627 106.492 16.5941 106.178 15.9479C105.864 15.3017 105.209 14.8914 104.491 14.8914H101.568C100.972 14.8914 100.723 14.4681 100.643 14.2861C100.564 14.1041 100.423 13.6337 100.828 13.1967L100.838 13.1869L108.691 4.59975C109.71 3.45372 111.649 3.45419 112.667 4.60078L118.026 10.4404C118.726 11.2033 119.912 11.2543 120.676 10.554C121.438 9.85388 121.489 8.66773 120.789 7.90478L115.426 2.06067L115.419 2.05317C112.953 -0.684201 108.405 -0.684576 105.939 2.05317L105.929 2.06301L98.0736 10.6525C95.5096 13.3345 97.0699 17.9473 100.689 18.5631L94.8737 25.9444C93.5904 27.3397 93.2561 29.279 94.0042 31.0305C94.6026 32.4318 95.7671 33.4157 97.1793 33.7725L92.2819 39.9851C89.4398 42.9602 91.6424 48.0369 95.7655 47.9858Z" fill="#9ED198"/>
</g>
<path d="M284.943 36.1852C284.943 36.1771 284.943 36.1936 284.943 36.1852V36.1852ZM308.845 36.3089C308.822 42.753 303.783 47.9956 296.847 47.9956C290.192 47.9956 284.976 42.6691 284.943 36.1852C284.955 33.9295 285.623 31.7087 286.877 29.8065C287.608 28.6972 288.788 28.018 290.116 27.9434C291.445 27.8687 292.696 28.4118 293.548 29.4336L296.224 32.6408C296.888 33.4358 296.781 34.6179 295.986 35.2812C295.191 35.9446 294.009 35.8378 293.345 35.0429L290.669 31.8354C290.558 31.7028 290.422 31.6816 290.326 31.6867C290.232 31.6921 290.101 31.7281 290.007 31.8698C289.138 33.1885 288.696 34.6465 288.692 36.2036C288.702 40.6399 292.254 44.2463 296.847 44.2463C301.44 44.2463 305.08 40.6796 305.095 36.2955C305.019 27.0112 296.104 26.4426 296.191 12.9395V10.9617C290.23 8.8687 291.578 0.130371 297.972 0.00439453C304.256 0.118374 305.72 8.64637 299.94 10.8961V12.9395C299.94 19.2443 302.131 22.1245 304.451 25.1739C306.62 28.0255 308.864 30.9742 308.845 36.3089ZM299.846 5.62836C299.846 4.59468 299.005 3.75371 297.972 3.75371C295.485 3.85672 295.485 7.40038 297.972 7.50302C299.005 7.50302 299.846 6.66205 299.846 5.62836Z" fill="#9ED198"/>
<path d="M304.551 19.2018C305.542 20.1904 306.982 20.7803 308.403 20.7803L308.407 20.7804C309.791 20.7796 311.162 20.2042 312.166 19.2019C312.899 18.4706 312.901 17.2836 312.17 16.5506C311.438 15.8176 310.251 15.8163 309.518 16.5474C309.211 16.8545 308.805 17.0308 308.404 17.031C307.973 17.0313 307.489 16.837 307.199 16.5474C306.466 15.8163 305.279 15.8176 304.547 16.5506C303.816 17.2836 303.818 18.4706 304.551 19.2018Z" fill="#81B7D8"/>
<path d="M286.065 18.7493C285.662 18.7487 285.268 18.9204 284.955 19.2329C283.947 20.2381 282.558 20.8116 281.137 20.8116L281.08 20.8113C279.693 20.7964 278.33 20.2211 277.339 19.2329C277.031 18.9257 276.625 18.7495 276.225 18.7493C275.808 18.7491 275.41 18.9186 275.104 19.2265C274.088 20.2495 272.744 20.8123 271.319 20.8114C269.914 20.8106 268.579 20.25 267.559 19.2329C265.869 17.408 268.377 14.892 270.208 16.5786C270.515 16.8856 270.921 17.0619 271.322 17.0621C271.739 17.0624 272.137 16.8929 272.443 16.5848C273.458 15.5622 274.802 14.9993 276.227 15C277.632 15.0007 278.967 15.5612 279.987 16.5785C280.286 16.877 280.71 17.0578 281.12 17.0622C281.55 17.0651 282.003 16.8815 282.307 16.5786C283.329 15.5584 284.664 14.9998 286.071 15C287.456 15.0023 288.825 15.5776 289.829 16.5786C290.131 16.8799 290.578 17.065 290.999 17.0621C291.197 17.0607 291.407 17.0169 291.605 16.9354C293.942 16.0832 295.292 19.3693 293.028 20.4044C292.391 20.6658 291.698 20.8065 291.026 20.8113C289.6 20.8233 288.197 20.2464 287.181 19.2329C286.873 18.9262 286.467 18.75 286.065 18.7493Z" fill="#81B7D8"/>
<g clip-path="url(#clip3)">
<path d="M371.051 49C369.486 49 367.93 48.6978 366.465 48.1019L360.434 45.6493C356.531 44.062 354.009 40.3136 354.009 36.0999V8.79252C353.933 3.35671 359.712 -0.529944 364.717 1.58704C364.722 1.58882 364.726 1.5907 364.731 1.59248L370.126 3.83467L382.736 1.21077C382.752 1.2073 382.769 1.20411 382.785 1.20111C385.06 0.7911 387.394 1.03467 389.536 1.9055L395.567 4.35799C399.47 5.94538 401.992 9.6938 401.992 13.9074V41.2068C401.992 43.8002 400.707 46.2127 398.556 47.6605C396.404 49.1081 393.685 49.3893 391.283 48.4123C391.279 48.4105 391.274 48.4086 391.27 48.4069L385.876 46.1649L373.266 48.7963C373.249 48.7999 373.232 48.8031 373.215 48.8062C372.497 48.9357 371.773 49 371.051 49ZM361.774 4.75545C360.992 4.75545 360.221 4.98927 359.538 5.44905C358.406 6.21032 357.757 7.42893 357.757 8.79252V36.0999C357.757 38.7813 359.362 41.1667 361.846 42.1769L367.877 44.6294C369.352 45.2292 370.959 45.3992 372.527 45.1213L385.677 42.3771C386.046 42.2999 386.431 42.3361 386.779 42.4811L392.702 44.9425C393.963 45.4532 395.334 45.3104 396.463 44.5504C397.595 43.7891 398.243 42.5705 398.243 41.2069V13.9075C398.243 11.2261 396.638 8.84079 394.154 7.8306L388.124 5.37811C386.649 4.77822 385.041 4.60831 383.474 4.88618L370.323 7.62264C369.953 7.69959 369.57 7.66322 369.221 7.51843L363.299 5.05703C362.801 4.85526 362.285 4.75545 361.774 4.75545Z" fill="#81B7D8"/>
<path d="M369.472 35.9727C369.472 37.2667 368.423 38.3156 367.129 38.3156C365.835 38.3156 364.786 37.2667 364.786 35.9727C364.909 32.8657 369.349 32.8648 369.472 35.9727Z" fill="#81B7D8"/>
<path d="M369.472 27.5381C369.472 28.8321 368.423 29.8811 367.129 29.8811C365.835 29.8811 364.786 28.8321 364.786 27.5381C364.909 24.4311 369.349 24.4303 369.472 27.5381Z" fill="#81B7D8"/>
<path d="M377.813 35.9727C377.813 37.2667 376.764 38.3156 375.47 38.3156C374.176 38.3156 373.127 37.2667 373.127 35.9727C373.25 32.8657 377.689 32.8648 377.813 35.9727Z" fill="#81B7D8"/>
<path d="M386.154 35.9727C386.154 37.2667 385.105 38.3156 383.811 38.3156C382.517 38.3156 381.468 37.2667 381.468 35.9727C381.591 32.8657 386.03 32.8648 386.154 35.9727Z" fill="#81B7D8"/>
<path d="M386.154 27.5381C386.154 28.8321 385.105 29.8811 383.811 29.8811C382.517 29.8811 381.468 28.8321 381.468 27.5381C381.591 24.4311 386.03 24.4303 386.154 27.5381Z" fill="#81B7D8"/>
<path d="M386.154 19.1035C386.154 20.3975 385.105 21.4465 383.811 21.4465C382.517 21.4465 381.468 20.3975 381.468 19.1035C381.591 15.9965 386.03 15.9957 386.154 19.1035Z" fill="#81B7D8"/>
<path d="M394.495 19.1035C394.495 20.3975 393.446 21.4465 392.152 21.4465C390.858 21.4465 389.809 20.3975 389.809 19.1035C389.932 15.9965 394.371 15.9957 394.495 19.1035Z" fill="#81B7D8"/>
<path d="M372.203 14.8058L369.78 17.2292L372.203 19.6525C372.935 20.3845 372.935 21.5712 372.203 22.3033C371.471 23.0353 370.284 23.0353 369.552 22.3033L367.129 19.8799L364.706 22.3033C363.974 23.0353 362.787 23.0353 362.055 22.3033C361.323 21.5713 361.323 20.3846 362.055 19.6525L364.478 17.2292L362.055 14.8058C360.367 12.9794 362.877 10.4666 364.706 12.1551L367.129 14.5785L369.553 12.1551C371.379 10.4673 373.892 12.9773 372.203 14.8058Z" fill="#D47757"/>
</g>
<defs>
<clipPath id="clip0">
<rect width="50" height="50" fill="white"/>
</clipPath>
<clipPath id="clip1">
<rect width="48" height="48" fill="white" transform="translate(178)"/>
</clipPath>
<clipPath id="clip2">
<rect width="48" height="48" fill="white" transform="translate(90)"/>
</clipPath>
<clipPath id="clip3">
<rect width="48" height="48" fill="white" transform="translate(354 1)"/>
</clipPath>
</defs>
</svg>
